<svg width="86" height="50" viewBox="0 0 86 50" fill="none" xmlns="http://www.w3.org/2000/svg">
<path d="M29.0938 24.5C29.0938 25.4531 28.7151 26.3672 28.0412 27.0412C27.3672 27.7151 26.4531 28.0938 25.5 28.0938C24.5469 28.0938 23.6328 27.7151 22.9588 27.0412C22.2849 26.3672 21.9062 25.4531 21.9062 24.5C21.9062 23.5469 22.2849 22.6328 22.9588 21.9588C23.6328 21.2849 24.5469 20.9062 25.5 20.9062C26.4531 20.9062 27.3672 21.2849 28.0412 21.9588C28.7151 22.6328 29.0938 23.5469 29.0938 24.5Z" fill="#9C84CC"/>
<path d="M14 24.5C14 24.5 18.3125 16.5938 25.5 16.5938C32.6875 16.5938 37 24.5 37 24.5C37 24.5 32.6875 32.4062 25.5 32.4062C18.3125 32.4062 14 24.5 14 24.5ZM25.5 29.5312C26.8344 29.5312 28.1141 29.0012 29.0576 28.0576C30.0012 27.1141 30.5312 25.8344 30.5312 24.5C30.5312 23.1656 30.0012 21.8859 29.0576 20.9424C28.1141 19.9988 26.8344 19.4688 25.5 19.4688C24.1656 19.4688 22.8859 19.9988 21.9424 20.9424C20.9988 21.8859 20.4688 23.1656 20.4688 24.5C20.4688 25.8344 20.9988 27.1141 21.9424 28.0576C22.8859 29.0012 24.1656 29.5312 25.5 29.5312Z" fill="#9C84CC"/>
<path d="M67.0938 24.5C67.0938 25.4531 66.7151 26.3672 66.0412 27.0412C65.3672 27.7151 64.4531 28.0938 63.5 28.0938C62.5469 28.0938 61.6328 27.7151 60.9588 27.0412C60.2849 26.3672 59.9062 25.4531 59.9062 24.5C59.9062 23.5469 60.2849 22.6328 60.9588 21.9588C61.6328 21.2849 62.5469 20.9062 63.5 20.9062C64.4531 20.9062 65.3672 21.2849 66.0412 21.9588C66.7151 22.6328 67.0938 23.5469 67.0938 24.5Z" fill="#9C84CC"/>
<path d="M52 24.5C52 24.5 56.3125 16.5938 63.5 16.5938C70.6875 16.5938 75 24.5 75 24.5C75 24.5 70.6875 32.4062 63.5 32.4062C56.3125 32.4062 52 24.5 52 24.5ZM63.5 29.5312C64.8344 29.5312 66.1141 29.0012 67.0576 28.0576C68.0012 27.1141 68.5312 25.8344 68.5312 24.5C68.5312 23.1656 68.0012 21.8859 67.0576 20.9424C66.1141 19.9988 64.8344 19.4688 63.5 19.4688C62.1656 19.4688 60.8859 19.9988 59.9424 20.9424C58.9988 21.8859 58.4688 23.1656 58.4688 24.5C58.4688 25.8344 58.9988 27.1141 59.9424 28.0576C60.8859 29.0012 62.1656 29.5312 63.5 29.5312Z" fill="#9C84CC"/>
<path d="M30.5974 9.10725L16.6363 9.01397C10.8284 8.97516 7.88979 14.2555 7.82031 24.8551C7.75033 35.5298 10.6193 40.8865 16.4271 40.9253L24.4687 40.9791C26.1812 40.9905 27.0277 42.4997 27.008 45.5067C26.9883 48.5136 26.1221 50.0114 24.4096 49.9999L17.4848 49.9537C11.3047 49.9124 6.81471 47.6271 4.01482 43.0977C1.2894 38.5689 -0.0484316 32.5082 0.00133888 24.9156C0.0506166 17.3982 1.46778 11.3559 4.25284 6.78868C7.11235 2.22197 11.6322 -0.040738 17.8123 0.000555051L30.6565 0.0863749C38.3258 0.137618 42.9206 3.47612 44.4409 10.1019C46.2664 4.25025 50.8276 1.34881 58.1246 1.39757L68.5117 1.46697C74.6918 1.50826 79.1443 3.83092 81.8693 8.43494C84.6687 13.0395 86.0452 18.8749 85.9989 25.9412C85.9521 33.0828 84.5004 38.7114 81.6438 42.827C78.7873 46.9427 74.3061 48.9801 68.2005 48.9393L66.5252 48.9281C64.8126 48.9167 63.9662 47.4075 63.9859 44.4005C64.0056 41.3936 64.8717 39.8958 66.5843 39.9073L69.3765 39.9259C75.1843 39.9647 78.1205 35.0602 78.1851 25.2124C78.2491 15.4398 75.3773 10.5341 69.5694 10.4953L58.0655 10.4184C51.5131 10.3747 48.2102 14.4122 48.157 22.531L48.1016 30.988C48.0917 32.4915 46.7838 33.2345 44.1777 33.2171C41.5716 33.1997 40.2735 32.4393 40.2834 30.9358L40.3462 21.3511C40.3994 13.2323 37.1498 9.15103 30.5974 9.10725Z" fill="#9C84CC"/>
</svg>
